<svg xmlns="http://www.w3.org/2000/svg" xmlns:xlink="http://www.w3.org/1999/xlink" width="260" height="260" viewBox="0 0 260 260">
  <defs>
    <linearGradient id="linear-gradient" x1="0.27" y1="0.991" x2="0.696" y2="0.279" gradientUnits="objectBoundingBox">
      <stop offset="0" stop-color="#edf2f7"/>
      <stop offset="1" stop-color="#6ea0c6"/>
    </linearGradient>
    <linearGradient id="linear-gradient-8" x1="0.5" x2="0.5" y2="1" gradientUnits="objectBoundingBox">
      <stop offset="0" stop-color="#edf2f7"/>
      <stop offset="1" stop-color="#d3e0ea"/>
    </linearGradient>
    <clipPath id="clip-path">
      <rect id="Rectangle_4579" data-name="Rectangle 4579" width="8.695" height="10.701" transform="translate(0 0)" fill="none"/>
    </clipPath>
    <clipPath id="clip-path-2">
      <path id="Path_47017" data-name="Path 47017" d="M9.67-22.284l-2.7-1.582a.585.585,0,0,1-.209-.806.6.6,0,0,1,.816-.206l2.7,1.582a.585.585,0,0,1,.209.806A.6.6,0,0,1,9.67-22.284Z" transform="translate(-6.676 24.96)" fill="none"/>
    </clipPath>
    <clipPath id="clip-path-3">
      <path id="Path_47016" data-name="Path 47016" d="M1-28.452H9.552V-39H1Z" transform="translate(-1 39)" fill="none"/>
    </clipPath>
    <linearGradient id="linear-gradient-9" x1="0.394" y1="0.796" x2="0.394" y2="-31.309" gradientUnits="objectBoundingBox">
      <stop offset="0"/>
      <stop offset="0" stop-color="#8fa1b0"/>
      <stop offset="0.1" stop-color="#8a9cac"/>
      <stop offset="0.2" stop-color="#8597a7"/>
      <stop offset="0.3" stop-color="#8192a3"/>
      <stop offset="0.4" stop-color="#7c8d9e"/>
      <stop offset="0.5" stop-color="#77899a"/>
      <stop offset="0.6" stop-color="#728495"/>
      <stop offset="0.7" stop-color="#6d7f91"/>
      <stop offset="0.8" stop-color="#687a8c"/>
      <stop offset="0.9" stop-color="#647588"/>
      <stop offset="1" stop-color="#5f7083"/>
      <stop offset="1"/>
    </linearGradient>
    <linearGradient id="linear-gradient-10" x1="0.513" y1="0.796" x2="0.513" y2="0.359" gradientUnits="objectBoundingBox">
      <stop offset="0" stop-color="#8fa1b0"/>
      <stop offset="0.1" stop-color="#8a9cac"/>
      <stop offset="0.2" stop-color="#8597a7"/>
      <stop offset="0.3" stop-color="#8192a3"/>
      <stop offset="0.4" stop-color="#7c8d9e"/>
      <stop offset="0.5" stop-color="#77899a"/>
      <stop offset="0.6" stop-color="#728495"/>
      <stop offset="0.7" stop-color="#6d7f91"/>
      <stop offset="0.8" stop-color="#687a8c"/>
      <stop offset="0.9" stop-color="#647588"/>
      <stop offset="1" stop-color="#5f7083"/>
    </linearGradient>
    <clipPath id="clip-path-4">
      <path id="Path_47021" data-name="Path 47021" d="M22-35.269l-1.824-2.544a.585.585,0,0,1,.137-.822.6.6,0,0,1,.829.144l1.824,2.544a.585.585,0,0,1-.137.822A.6.6,0,0,1,22-35.269Z" transform="translate(-20.059 38.742)" fill="none"/>
    </clipPath>
    <linearGradient id="linear-gradient-11" x1="0.086" y1="0.591" x2="0.086" y2="-22.934" xlink:href="#linear-gradient-9"/>
    <linearGradient id="linear-gradient-12" x1="0.185" y1="0.591" x2="0.185" y2="0.271" xlink:href="#linear-gradient-10"/>
    <clipPath id="clip-path-6">
      <path id="Path_47025" data-name="Path 47025" d="M5.248-5.821l-3.13-.019a.585.585,0,0,1-.585-.594.6.6,0,0,1,.6-.586L5.268-7a.585.585,0,0,1,.585.594A.6.6,0,0,1,5.248-5.821Z" transform="translate(-1.533 7.021)" fill="none"/>
    </clipPath>
    <linearGradient id="linear-gradient-13" x1="0.632" y1="0.964" x2="0.632" y2="-22.562" xlink:href="#linear-gradient-9"/>
    <linearGradient id="linear-gradient-14" x1="0.731" y1="0.964" x2="0.731" y2="0.644" xlink:href="#linear-gradient-10"/>
    <clipPath id="clip-path-8">
      <path id="Path_47230" data-name="Path 47230" d="M341.371-193.458l-3.462,3.565a.594.594,0,0,0-.023.839.594.594,0,0,0,.839.023l3.484-3.82a.538.538,0,0,0-.121-.784A.6.6,0,0,0,341.371-193.458Z" transform="translate(-337.722 193.691)" fill="none"/>
    </clipPath>
    <clipPath id="clip-path-9">
      <path id="Path_47229" data-name="Path 47229" d="M124-362.145h68.509V-484H124Z" transform="translate(-124 484)" fill="none"/>
    </clipPath>
    <clipPath id="clip-path-10">
      <path id="Path_47233" data-name="Path 47233" d="M355.876-216.077c.735,1.011,2.832.741,4.684-.6s2.757-3.256,2.022-4.267c-.164-.225-.273-.751-.554-.851-.981-.35-2.69.41-4.129,1.456a5.82,5.82,0,0,0-2.495,3.282C355.359-216.657,355.664-216.368,355.876-216.077Z" transform="translate(-355.399 221.887)" fill="none" clip-rule="evenodd"/>
    </clipPath>
    <clipPath id="clip-path-12">
      <path id="Path_47236" data-name="Path 47236" d="M354.241-218.919c.752,1,2.844.691,4.672-.686s2.7-3.3,1.947-4.3-2.844-.691-4.672.686S353.489-219.918,354.241-218.919Z" transform="translate(-353.971 224.494)" fill="none" clip-rule="evenodd"/>
    </clipPath>
    <clipPath id="clip-path-14">
      <path id="Path_47252" data-name="Path 47252" d="M149.865-314.253a22.428,22.428,0,0,0-5.976,4.35,21.183,21.183,0,0,1,8.467,2.783,14.357,14.357,0,0,1,5.667,5.392,13.14,13.14,0,0,1,11.048-2.916,23.361,23.361,0,0,0-2.47,8.838c1.261,2.568,9,2.888,10.487,3.471a13.256,13.256,0,0,0,1.325-1.948,31.8,31.8,0,0,1-7.6-2.781c1.952-2.5,2.091-4.583,3.561-6.159,2.748-2.946,1.442-4.032,1.909-5.63s-3.775-5.867-5.053-6.619C169.834-316.3,158.595-318.772,149.865-314.253Z" transform="translate(-143.889 316.892)" fill="none" clip-rule="evenodd"/>
    </clipPath>
    <clipPath id="clip-path-17">
      <rect id="Rectangle_4762" data-name="Rectangle 4762" width="16" height="13" transform="translate(19.223 82.122) rotate(-63.045)" stroke="rgba(0,0,0,0)" stroke-linecap="round" stroke-width="1" fill="url(#linear-gradient)"/>
    </clipPath>
    <clipPath id="clip-path-18">
      <path id="Path_86414" data-name="Path 86414" d="M28.183,80.189,25.655,76.25a.873.873,0,0,1,.255-1.209l.011-.008a.9.9,0,0,1,1.227.279l2.529,3.939a.875.875,0,0,1-.256,1.209l-.012.008A.9.9,0,0,1,28.183,80.189Z" stroke="rgba(0,0,0,0)" stroke-linecap="round" stroke-width="1" fill="url(#linear-gradient)"/>
    </clipPath>
    <clipPath id="clip-path-19">
      <rect id="Rectangle_4759" data-name="Rectangle 4759" width="15.771" height="12.787" transform="translate(19.413 82.22) rotate(-63.045)" stroke="rgba(0,0,0,0)" stroke-linecap="round" stroke-width="1" fill="url(#linear-gradient)"/>
    </clipPath>
    <clipPath id="clip-path-20">
      <path id="Path_86415" data-name="Path 86415" d="M33.981,77.882l-.71-4.624a.873.873,0,0,1,.723-1l.013,0a.9.9,0,0,1,1.008.753l.709,4.624a.875.875,0,0,1-.723,1l-.013,0A.9.9,0,0,1,33.981,77.882Z" stroke="rgba(0,0,0,0)" stroke-linecap="round" stroke-width="1" fill="url(#linear-gradient)"/>
    </clipPath>
    <clipPath id="clip-path-21">
      <rect id="Rectangle_4760" data-name="Rectangle 4760" width="15.771" height="12.787" transform="translate(19.413 82.219) rotate(-63.045)" stroke="rgba(0,0,0,0)" stroke-linecap="round" stroke-width="1" fill="url(#linear-gradient)"/>
    </clipPath>
    <clipPath id="clip-path-22">
      <path id="Path_86416" data-name="Path 86416" d="M24.724,84.531l-4.159-2.148a.874.874,0,0,1-.383-1.175l.006-.013a.9.9,0,0,1,1.2-.374l4.159,2.148a.874.874,0,0,1,.384,1.175l-.007.013A.9.9,0,0,1,24.724,84.531Z" stroke="rgba(0,0,0,0)" stroke-linecap="round" stroke-width="1" fill="url(#linear-gradient)"/>
    </clipPath>
  </defs>
  <g id="_4" data-name="4" transform="translate(-1394 -138)">
    <g id="Group_24615" data-name="Group 24615" transform="translate(1408 158)">
      <path id="Path_47026" data-name="Path 47026" d="M106,212A106,106,0,1,0,0,106,106,106,0,0,0,106,212Z" fill="rgba(255,255,255,0.27)" stroke="rgba(255,255,255,0.58)" stroke-width="2" stroke-dasharray="2 7"/>
    </g>
    <rect id="Rectangle_4788" data-name="Rectangle 4788" width="260" height="260" transform="translate(1394 138)" fill="none"/>
    <g id="Group_22824" data-name="Group 22824" transform="translate(0 19)">
      <rect id="Rectangle_4572" data-name="Rectangle 4572" width="117" height="154" rx="8" transform="translate(1459 172)" fill="url(#linear-gradient-8)"/>
      <rect id="Rectangle_4573" data-name="Rectangle 4573" width="103" height="134" transform="translate(1466 182)" fill="#fff"/>
      <rect id="Rectangle_4574" data-name="Rectangle 4574" width="103" height="11" transform="translate(1466 182)" fill="#d9e7ef"/>
      <ellipse id="Ellipse_2760" data-name="Ellipse 2760" cx="105" cy="13" rx="105" ry="13" transform="translate(1420 334)" opacity="0.3"/>
      <g id="Group_24581" data-name="Group 24581" transform="matrix(0.5, -0.866, 0.866, 0.5, 459.283, 1400.522)">
        <g id="Group_24580" data-name="Group 24580">
          <g id="Group_21896" data-name="Group 21896" transform="translate(1509.617 275.832) rotate(-179)" opacity="0.5" style="isolation: isolate">
            <g id="Group_21911" data-name="Group 21911" transform="translate(0.787 -39.803)" clip-path="url(#clip-path)">
              <g id="Group_21900" data-name="Group 21900" transform="translate(1.76 4.156)" clip-path="url(#clip-path-2)">
                <g id="Group_21899" data-name="Group 21899" transform="translate(-1.618 -4.002)" clip-path="url(#clip-path-3)">
                  <g id="Group_21897" data-name="Group 21897" transform="translate(-0.551 -0.447)" opacity="0">
                    <g id="Group_21896-2" data-name="Group 21896" transform="matrix(-0.052, 0.999, -0.999, -0.052, 9.655, 0.476)">
                      <path id="Path_47014" data-name="Path 47014" d="M.448,9.093,0,.552,10.534,0l.448,8.541Z" transform="translate(0 0)" fill="url(#linear-gradient-9)"/>
                    </g>
                  </g>
                  <g id="Group_21898" data-name="Group 21898" transform="matrix(-0.052, 0.999, -0.999, -0.052, 9.104, 0.029)">
                    <path id="Path_47015" data-name="Path 47015" d="M.448,9.093,0,.552,10.534,0l.448,8.541Z" transform="translate(0 0)" fill="url(#linear-gradient-10)"/>
                  </g>
                </g>
              </g>
              <g id="Group_21905" data-name="Group 21905" transform="translate(5.576 0.227)" clip-path="url(#clip-path-4)">
                <g id="Group_21904" data-name="Group 21904" transform="translate(-5.433 -0.073)" clip-path="url(#clip-path-3)">
                  <g id="Group_21902" data-name="Group 21902" transform="translate(-4.267 -3.46)" opacity="0">
                    <g id="Group_21901" data-name="Group 21901" transform="matrix(-0.454, 0.891, -0.891, -0.454, 17.086, 5.634)">
                      <path id="Path_47018" data-name="Path 47018" d="M3.883,12.409,0,4.789,9.4,0l3.883,7.62Z" transform="translate(0)" fill="url(#linear-gradient-11)"/>
                    </g>
                  </g>
                  <g id="Group_21903" data-name="Group 21903" transform="matrix(-0.454, 0.891, -0.891, -0.454, 12.819, 2.174)">
                    <path id="Path_47019" data-name="Path 47019" d="M3.883,12.409,0,4.789,9.4,0l3.883,7.62Z" transform="translate(0)" fill="url(#linear-gradient-12)"/>
                  </g>
                </g>
              </g>
              <g id="Group_21910" data-name="Group 21910" transform="translate(0.294 9.27)" clip-path="url(#clip-path-6)">
                <g id="Group_21909" data-name="Group 21909" transform="translate(-0.152 -9.117)" clip-path="url(#clip-path-3)">
                  <g id="Group_21907" data-name="Group 21907" transform="translate(-4.267 -3.46)" opacity="0">
                    <g id="Group_21906" data-name="Group 21906" transform="matrix(0.454, 0.891, -0.891, 0.454, 11.056, 0)">
                      <path id="Path_47022" data-name="Path 47022" d="M0,7.62,3.883,0l9.4,4.789L9.4,12.409Z" transform="translate(0)" fill="url(#linear-gradient-13)"/>
                    </g>
                  </g>
                  <g id="Group_21908" data-name="Group 21908" transform="matrix(0.454, 0.891, -0.891, 0.454, 6.79, -3.46)">
                    <path id="Path_47023" data-name="Path 47023" d="M0,7.62,3.883,0l9.4,4.789L9.4,12.409Z" fill="url(#linear-gradient-14)"/>
                  </g>
                </g>
              </g>
            </g>
          </g>
          <g id="Group_22058" data-name="Group 22058" transform="matrix(0.899, -0.438, 0.438, 0.899, 1491.535, 311.674)" clip-path="url(#clip-path-8)">
            <g id="Group_22057" data-name="Group 22057" transform="translate(-39.045 -53.037)" clip-path="url(#clip-path-9)">
              <path id="Path_47228" data-name="Path 47228" d="M332.637-201.3l6,.63-.732,6.961-6-.63Z" transform="translate(-293.923 252.951)" fill="#302c47"/>
            </g>
          </g>
          <g id="Group_22060" data-name="Group 22060" transform="matrix(0.899, -0.438, 0.438, 0.899, 1492.179, 305.628)" clip-path="url(#clip-path-10)">
            <g id="Group_22059" data-name="Group 22059" transform="translate(-42.275 -47.886)" clip-path="url(#clip-path-9)">
              <path id="Path_47231" data-name="Path 47231" d="M351.982-234.134l3.735,5.141-8.285,6.019-3.735-5.141Z" transform="translate(-303.56 279.782)" fill="rgba(211,213,235,0.6)"/>
            </g>
          </g>
        </g>
        <g id="Group_22062" data-name="Group 22062" transform="matrix(0.899, -0.438, 0.438, 0.899, 1491.736, 305.314)" clip-path="url(#clip-path-12)">
          <g id="Group_22061" data-name="Group 22061" transform="translate(-42.014 -47.409)" clip-path="url(#clip-path-9)">
            <path id="Path_47234" data-name="Path 47234" d="M349.07-238.182l3.824,5.075-8.079,6.088-3.824-5.075Z" transform="translate(-301.349 283.091)" fill="rgba(255,255,255,0.6)"/>
          </g>
        </g>
      </g>
      <g id="Group_22097" data-name="Group 22097" transform="translate(1518 182)">
        <g id="Group_22096" data-name="Group 22096" transform="translate(0 0)">
          <g id="Group_22092" data-name="Group 22092" transform="translate(0)">
            <g id="Group_22091" data-name="Group 22091">
              <rect id="Rectangle_4582" data-name="Rectangle 4582" width="24.436" height="4.426" transform="translate(44.838 76.675) rotate(-111.281)" fill="#f5ca2d"/>
              <g id="Group_22090" data-name="Group 22090" transform="translate(0)">
                <path id="Path_47272" data-name="Path 47272" d="M-104.847,179.7a127.814,127.814,0,0,0-15.66.482c-.832.1-4.369.222-2.017.195l-1.781.6c-1.9,1.4-3.513,3.083-5.561,4.32a23.679,23.679,0,0,1-5.9,2.562,28.394,28.394,0,0,0-5.018,28.915,28.416,28.416,0,0,0,29.9,17.9,14,14,0,0,1,3.028-1.48,7.626,7.626,0,0,1,1.107-.48,37.5,37.5,0,0,1,4.445-2.3,15.661,15.661,0,0,1,4.945-1.15,28.413,28.413,0,0,0,9.519-33.09A28.333,28.333,0,0,0-104.847,179.7Z" transform="translate(142.726 -178.061)" fill="#d9e7ef"/>
                <path id="Path_47273" data-name="Path 47273" d="M-98.012,234.091a13.617,13.617,0,0,1,5.955-1.811,32.461,32.461,0,0,0,4.143-.357c.071-.021.143-.03.214-.05l-20.154-51.8a28.4,28.4,0,0,0-14.4,36A28.4,28.4,0,0,0-98.012,234.091Z" transform="translate(125.995 -178.061)" fill="#e7eef4"/>
                <g id="Group_22089" data-name="Group 22089" transform="translate(0)">
                  <path id="Path_47274" data-name="Path 47274" d="M-87.84,196.175a28.406,28.406,0,0,1-16.174,36.772,28.405,28.405,0,0,1-36.772-16.174A28.406,28.406,0,0,1-124.613,180,28.406,28.406,0,0,1-87.84,196.175Zm-2.972,1.156a25.217,25.217,0,0,0-32.644-14.359,25.218,25.218,0,0,0-14.359,32.645,25.218,25.218,0,0,0,32.645,14.359A25.218,25.218,0,0,0-90.812,197.331Z" transform="translate(142.726 -178.061)" fill="#122043"/>
                </g>
              </g>
              <path id="Path_47275" data-name="Path 47275" d="M-127.533,276.151l-9.716-29.026a1.366,1.366,0,0,0-1.741-.837l-3.491,1.36a1.367,1.367,0,0,0-.716,1.794l7.793,20C-134.243,267.639-129.987,276.7-127.533,276.151Z" transform="translate(184.934 -178.061)" fill="#e76623"/>
            </g>
            <path id="Path_47277" data-name="Path 47277" d="M-126.033,194.768a3.663,3.663,0,0,0,4.741,2.087,3.662,3.662,0,0,0,2.088-4.741,3.664,3.664,0,0,0-4.741-2.088A3.665,3.665,0,0,0-126.033,194.768Z" transform="translate(159.338 -178.061)" fill="#fff"/>
            <path id="Path_47278" data-name="Path 47278" d="M-129.641,199.074a1.744,1.744,0,0,0,2.257.994,1.745,1.745,0,0,0,.994-2.257,1.744,1.744,0,0,0-2.257-.994A1.743,1.743,0,0,0-129.641,199.074Z" transform="translate(170.133 -178.061)" fill="#fff"/>
          </g>
          <g id="Group_22779" data-name="Group 22779" transform="translate(-103.5 -20.084)">
            <path id="Path_86452" data-name="Path 86452" d="M171.617,124.314a8.972,8.972,0,0,1-3.034,2.464l1.052,14.268S180.518,149.773,171.617,124.314Z" transform="translate(-5.603 -8.223)" fill="#eae0e1"/>
            <g id="Group_22773" data-name="Group 22773" transform="translate(150.985 96.804)">
              <path id="Path_86453" data-name="Path 86453" d="M182.444,118.627s-2.8-2.783-11.348-5.321c-5.183-1.538-9.907-5.121-12.8-6.036-.3-.1-.51,1-.86,1.157-2.27,1.032,8.808,8.362,10.245,9.258.9.559,11.744,4.789,15.772,4.882C185.883,122.622,182.444,118.627,182.444,118.627Z" transform="translate(-154.201 -101.536)" fill="#ece2e3"/>
              <path id="Path_86454" data-name="Path 86454" d="M159.958,106.92s-2.784-5.079-5.547-6.549,1.767,3.321,1.767,3.321-1.866-.279-2.193.577c-.132.347,1.221.58,1.432,1.168a7.94,7.94,0,0,0,1.32,2.647,4.8,4.8,0,0,0,1.319.915A4.3,4.3,0,0,1,159.958,106.92Z" transform="translate(-118.63 -140.244) rotate(16)" fill="#feb59b"/>
            </g>
            <g id="Group_22777" data-name="Group 22777" transform="translate(152.884 88.019)">
              <g id="Group_22774" data-name="Group 22774" transform="translate(0 15.614)">
                <g id="Group_24577" data-name="Group 24577" transform="matrix(0.978, 0.208, -0.208, 0.978, 16.341, -17.717)">
                  <g id="Group_24325" data-name="Group 24325" transform="translate(4.748 16.805)">
                    <path id="Path_53256" data-name="Path 53256" d="M0,0" fill="none" stroke="#707070" stroke-width="0.198"/>
                    <g id="Group_24311" data-name="Group 24311" transform="translate(1.084 4.907)">
                      <path id="Path_53079" data-name="Path 53079" d="M5.293,1.293c.039.264-.452.834-1.847.96C.984,2.4.391,2.079.073,1.665A1.079,1.079,0,0,1,.561.4,2.619,2.619,0,0,1,2.338.006C4.227.173,5.379.55,5.293,1.293Z" transform="translate(0 3.023)" fill="#e69578"/>
                      <path id="Path_53080" data-name="Path 53080" d="M2.283,4.023S.517,3.948.456,3.4C.78,2.517,0,.23,0,.23L1.883.095Zm.975-.361-1.71.367L1.1,3.68,1.883.095,3.768,0a10.791,10.791,0,0,0-.2,3.372Z" transform="translate(0.486)" fill="#e69578"/>
                    </g>
                  </g>
                  <g id="Group_24310" data-name="Group 24310" transform="translate(0.638 3.536)">
                    <g id="Group_23917" data-name="Group 23917">
                      <path id="Path_54367" data-name="Path 54367" d="M17.539,9.8c1.039-4.6-1.993-8.516-6.591-9.555l.018,0C6.368-.788,1.946,1.446.907,6.044L.212,9.12A8.536,8.536,0,0,0,6.656,19.327l-.019,0a8.536,8.536,0,0,0,10.206-6.445Z" fill="#feb59b"/>
                      <g id="Group_23915" data-name="Group 23915" transform="translate(7.324 10.512)">
                        <path id="Path_54383" data-name="Path 54383" d="M2.841,1.583a7.119,7.119,0,0,1-1.1,2.581C1.31,4.882.365,3.263.05,2.14s.9-2.391,1.871-2.1.892.944.919,1.54" fill="#feb59b"/>
                      </g>
                    </g>
                    <path id="Path_54390" data-name="Path 54390" d="M0,0" transform="translate(8.403 11.772)" fill="none" stroke="#707070" stroke-width="0.198"/>
                  </g>
                  <path id="Path_86479" data-name="Path 86479" d="M3.153.081A3.491,3.491,0,0,0,.409,3.251C.115,7.52-1.392,16.034,4.127,17.959c6.7,2.337,12.958-8.187,13.094-12.65.1-3.2-2.519-1.123-3.279-1.183A3.6,3.6,0,0,1,12.669,3.8L5.406.34A3.5,3.5,0,0,0,3.153.081Z" transform="translate(3.149 4.899)" fill="#4e2e1f"/>
                  <path id="Path_86480" data-name="Path 86480" d="M1.484,6.82S1.509,3.938.361,4.164.962.846,3.374.14,7.661,1.614,7.9,1.831,1.484,6.82,1.484,6.82Z" transform="translate(1.89 3.47)" fill="#5b2c12"/>
                  <path id="Path_51198" data-name="Path 51198" d="M2.362,10.538C4.386,6.894,3.171,2.86,0,.4L2.911,0a7.479,7.479,0,0,1,.2,10.254,4.57,4.57,0,0,1-1.211,1.1Z" transform="translate(15.092 3.049)" fill="#682e2e"/>
                  <path id="Path_51199" data-name="Path 51199" d="M1.7,13.81C.584,12.544-.85,6.737.638,4.858A17.488,17.488,0,0,1,5.306,0s5.926,1.077,8.231,2.5c.414.254,1.377.987,1.418,1.621h.013c.262.957-1.44,3.844-7.334,4.5-.189.015-.379.03-.581.044A5.581,5.581,0,0,0,8.441,6.285,5.619,5.619,0,0,1,5.313,8.518,4.265,4.265,0,0,0,3.7,9.356,44.4,44.4,0,0,0,1.7,13.81Z" transform="translate(0 2.005)" fill="#4e2e1f"/>
                  <path id="Path_51200" data-name="Path 51200" d="M15.99,13.252c2.269-4.105.459-8.694-3.647-10.979h0C8.23,0,3.363.9,1.094,5.01L.443,6.182A1.069,1.069,0,0,0,0,6.038c.1-.223.21-.451.324-.679A9.269,9.269,0,0,1,12.367.761a5.191,5.191,0,0,1,.58.283A8.231,8.231,0,0,1,17.28,7.989l.012.469a9.7,9.7,0,0,1-.778,3.735c-.143.335-.305.675-.479,1.007l-.106.186c-.1.175-.21.343-.309.518Z" transform="translate(1.464 0.335)" fill="#4e2e1f"/>
                  <path id="Path_50912" data-name="Path 50912" d="M16.829,9.088c.664-2.12-1.563-6.328-3.371-7.385A13.7,13.7,0,0,0,5.717.081,7.576,7.576,0,0,0,.3,4.019C-.082,4.695-.2,5.2.556,5.581c2.324,1.181,6.031,1.344,6.5,1.087A6.482,6.482,0,0,1,5.682,7.783c2.482,1.147,5,1.528,6.577.651a3.114,3.114,0,0,0,.479-.328c-.1,1.021.839,2.141.909,3.891a6.673,6.673,0,0,1-.593,3.193A13.439,13.439,0,0,0,16.829,9.088Z" transform="translate(3.437 0.008)" fill="#4e2e1f"/>
                  <path id="Path_50913" data-name="Path 50913" d="M5.057,1.505C4.068,3.3,0,1.9,0,1.9S3.74.588,3.651.229,6.046-.292,5.057,1.505Z" transform="translate(11.863 7.803)" fill="#4e2e1f"/>
                  <path id="Path_86481" data-name="Path 86481" d="M4.11,15.563s-1.482-3.549-1.833-3.621A10.481,10.481,0,0,1,0,8.1a8.938,8.938,0,0,1,1.67-4.759c1.3-1.716-.345-.873,1.3-1.716S6.264.835,7.191.272s7.925-.094,8.952,0S20,3.9,19.732,7.38a16.747,16.747,0,0,1-3.472,8.66c-1.321,1.438-3.556,4.306-8.446,4.324S4.11,15.563,4.11,15.563Z" transform="translate(0.638 2.828)" fill="#4e2e1f"/>
                  <path id="Path_51197" data-name="Path 51197" d="M0,1.027A1.717,1.717,0,0,1,.869.151,1.955,1.955,0,0,1,3.4,1.246a1.944,1.944,0,0,1-.865,2.609,1.718,1.718,0,0,1-.928.139,2.12,2.12,0,0,0-.035-1.965C1.222,1.416.678,1.3,0,1.027Z" transform="translate(15.211 0)" fill="#a7db56"/>
                  <path id="Path_50321" data-name="Path 50321" d="M.663.1a8.045,8.045,0,0,0,4.19,10.576l.836-.119C9.78,4.922,4.918-.819.663.1Z" transform="translate(17.065 5.014)" fill="#4e2e1f"/>
                  <path id="Path_51201" data-name="Path 51201" d="M11.993,8.705C13.771,5.908,11.9,1.989,8.8.633L7.348,0A7.569,7.569,0,0,1,8.876,8.711L8.307,9.925h0a1.3,1.3,0,0,1,.726.965h0c.014.035.014.065.028.1h0c0,.03.014.066.016.1L9.07,11.1a.285.285,0,0,0,.016.1l-.005.012,0,.09a.013.013,0,0,0,.007.018h0l0,.09c-.005.012-.005.012,0,.03a.2.2,0,0,1-.009.084c-.005.012-.005.012,0,.03s-.01.054,0,.072a.049.049,0,0,0,0,.042c-.012.024,0,.042-.016.067a.049.049,0,0,0,0,.042c-.011.024,0,.042-.016.067a.049.049,0,0,0,0,.042c-.012.024,0,.042-.016.067l-.178.39a.08.08,0,0,1-.035.043.048.048,0,0,1-.029.031c-.012.024-.029.031-.04.055s-3.608-.875-3.623-.87c-.011.025,3.565.932,3.553.956s-.023.019-.029.031c-.024.018-.029.031-.052.05-.005.012-.023.019-.029.031a.322.322,0,0,1-.088.063c-.045.027-4.662-.3-4.7-.263-.005.009,4.561.367,4.551.371-.041.025-.088.063-.129.088h0a.821.821,0,0,1-.141.083c-.018.007-.023.019-.035.013-.041.026-.1.058-.141.083h0c-.041.026-2.715-1.531-2.756-1.506L7.7,13.2c-.1.057-.207.1-.3.142L6.172,12.48c-1.19-.875-.946-.923-1.053-.883h0c-2.281-2.194-1.248.848-1.348.868h0c-.086.026,1.437-.88,1.348-.868-.006,0-4.559-4.454-1.941-1.629l3.27,3.676c-.076.01-2.6-1.179-2.677-1.18h0c-.03,0-3.566,2.127-3.6,2.128-.978,1.036,2.523-.211,1.213.352a11.692,11.692,0,0,0,5.951,4.572C7.541,15.13,11.993,8.705,11.993,8.705Z" transform="translate(10.762 6.862)" fill="#4e2e1f"/>
                  <path id="Path_51202" data-name="Path 51202" d="M5.007.417C4.55.253,3.78.549,3.4.389,3.1.267,2.8.134,2.511,0,2.3.7,1.982,1.644,1.646,2.64A1.838,1.838,0,0,1,1.24,4.886c-.135.1-.281.2-.428.291A10.465,10.465,0,0,0,.027,8.707,2.414,2.414,0,0,0,2.19,10.4C1.107,8.346,2.793,4.135,5.007.417Z" transform="translate(17.99 14.716)" fill="#4e2e1f"/>
                  <path id="Path_86482" data-name="Path 86482" d="M4.768,14.145a8.789,8.789,0,0,0,3.489-4.054c.834-2.481,2.408-6.543,1.429-7.9S6.168-.625,4.96.284-.316,6.208.02,8.581,4.768,14.145,4.768,14.145Z" transform="translate(12.13 8.742)" fill="#4e2e1f"/>
                  <path id="Path_54363" data-name="Path 54363" d="M2.708,1.156C2.488.6,2.346-.036,1.335,0A1.74,1.74,0,0,0,.254,2.6c.664.958,2.087,2.178,2.256,1.361a7.124,7.124,0,0,0,.2-2.8" transform="translate(1.267 13.574)" fill="#feb59b"/>
                </g>
                <g id="Mask_Group_11735" data-name="Mask Group 11735">
                  <g id="Group_24325-2" data-name="Group 24325" transform="translate(13.663)">
                    <path id="Path_53256-2" data-name="Path 53256" d="M173.063,108.668" transform="translate(-173.063 -108.668)" fill="none" stroke="#707070" stroke-width="0.198"/>
                  </g>
                  <g id="Group_24356" data-name="Group 24356" transform="translate(6.156 38.648)">
                    <g id="Group_23663" data-name="Group 23663">
                      <g id="Group_23417" data-name="Group 23417">
                        <g id="Group_19887" data-name="Group 19887">
                          <g id="Group_19844" data-name="Group 19844" transform="translate(0 0.41)">
                            <g id="Group_19842" data-name="Group 19842">
                              <g id="Group_19822" data-name="Group 19822">
                                <g id="Group_19819" data-name="Group 19819">
                                  <g id="Group_19281" data-name="Group 19281">
                                    <g id="Group_19277" data-name="Group 19277">
                                      <g id="Group_19279" data-name="Group 19279">
                                        <g id="Group_19276" data-name="Group 19276">
                                          <g id="Group_19265" data-name="Group 19265">
                                            <g id="Group_19261" data-name="Group 19261">
                                              <g id="Group_19259" data-name="Group 19259">
                                                <path id="Path_50162" data-name="Path 50162" d="M169.9,186.513c.637,1.076-1.563,8.188-2.1,10.587a28.161,28.161,0,0,0-.92,3.409c-.206.854.061-.111-.225,1.081a3.9,3.9,0,0,1-1.729.374,2.427,2.427,0,0,1-1.288-.747c1.049-5.778-.682-12.278.678-18.628C166.248,182,169.158,185.267,169.9,186.513Z" transform="translate(-163.635 -162.773)" fill="#fd434a"/>
                                                <g id="Group_19258" data-name="Group 19258" transform="translate(0.219)">
                                                  <path id="Path_50190" data-name="Path 50190" d="M168.442,159.223l-1.118,5.087s1.194-.2,6.095,1.443c2.03.682,3.473,1.5,4.279,1.8a2.559,2.559,0,0,0,.643,0c4.81-3.98,7.582-1.8,7.582-1.8s1.085-5.02.444-8.033c-4.227,1.029-6.521,3.007-9.187,3.117C171.583,161.071,168.442,159.223,168.442,159.223Z" transform="translate(-164.606 -157.72)" fill="#fd434a"/>
                                                  <path id="Path_50164" data-name="Path 50164" d="M166.871,165.091c-.6,1.246-1.913,9.552-2.55,14.094s-.445,3.644,0,4.074c1.291,1.246,5.793,2.393,5.788,0,.528-2.922,2.412-5.482,3.744-9a34.515,34.515,0,0,0,1.46-4.571c.058-.31.652-1.967.748-2.377.126-.537-.709,1.191-.677.591C175.455,166.5,166.871,165.091,166.871,165.091Z" transform="translate(-163.911 -159.222)" fill="#fd434a"/>
                                                  <path id="Path_50181" data-name="Path 50181" d="M188.655,160.354a9.311,9.311,0,0,1,.336,2.892c-.038.389-.025-.385,0,.431.1,3.272-.858,9.348-.966,12.715-.079,2.485.463,6.672,0,7.055-1.346,1.105-4.922-.627-5.692-2.253-1.323-2.8-4.384-9.337-4.366-16.615C177.97,163.163,188.655,160.354,188.655,160.354Z" transform="translate(-166.775 -158.257)" fill="#fd434a"/>
                                                  <path id="Path_50183" data-name="Path 50183" d="M182.807,180.042c-.319,2.737.227,6.319,1.065,10.1s1.694,5.228,2.936,10.489c.586.211,2.885.233,2.787-.532a24.515,24.515,0,0,1,0-4.09c.154-2.831.035-3.642,0-7.351-.095-1.434-.176-6.365-.887-7.79C186.785,180.117,183.127,177.3,182.807,180.042Z" transform="translate(-167.742 -162.029)" fill="#fd434a"/>
                                                </g>
                                              </g>
                                            </g>
                                          </g>
                                        </g>
                                      </g>
                                    </g>
                                  </g>
                                </g>
                              </g>
                            </g>
                          </g>
                          <path id="Path_52606" data-name="Path 52606" d="M169.118,157.863a26.732,26.732,0,0,0,9.5.98,32.628,32.628,0,0,0,8.5-1.638c.01.1.057.615.054,1.092,0,.369,0,1.019,0,1.019a30.8,30.8,0,0,1-8.549,1.358,49.273,49.273,0,0,1-9.784-1.026A11.489,11.489,0,0,0,169.118,157.863Z" transform="translate(-164.694 -157.205)" fill="#1c1c1c"/>
                        </g>
                      </g>
                    </g>
                    <g id="Path_53456" data-name="Path 53456" transform="translate(9.25 1.539)">
                      <path id="Path_86455" data-name="Path 86455" d="M178.91,159.209l-3.41-.071-.248,2.357,3.517.092Z" transform="translate(-175.252 -159.138)" fill="none"/>
                      <path id="Path_86456" data-name="Path 86456" d="M178.409,159.671l-2.484-.051-.149,1.417,2.549.067.084-1.432m.5-.462-.14,2.378-3.518-.092.248-2.357Z" transform="translate(-175.252 -159.138)" fill="#ece2e3"/>
                    </g>
                    <rect id="Rectangle_5371" data-name="Rectangle 5371" width="2.991" height="1.102" rx="0.395" transform="translate(4.897 3.982) rotate(-83)" fill="#fd434a"/>
                    <rect id="Rectangle_5440" data-name="Rectangle 5440" width="1.102" height="2.991" rx="0.395" transform="translate(15.445 1.462) rotate(-7)" fill="#fd434a"/>
                    <rect id="Rectangle_5441" data-name="Rectangle 5441" width="1.102" height="2.991" rx="0.395" transform="translate(20.01 0.518) rotate(-7)" fill="#fd434a"/>
                  </g>
                  <g id="Group_24357" data-name="Group 24357" transform="translate(0.203 76.893)">
                    <g id="Group_23674" data-name="Group 23674" transform="translate(0 0.109)">
                      <path id="Path_52267" data-name="Path 52267" d="M165.187,205.589a5.675,5.675,0,0,1-1.472-.084c-1.1-.083-1.331-.125-1.358-.131-.482.015-.641.451-1.694.526a.353.353,0,0,0-.041.006c-3.5.706-4.125,1.831-4.292,2.162a2.774,2.774,0,0,0-.162.416v.676a.3.3,0,0,0,.3.3h0l8.335-.058a.3.3,0,0,0,.3-.306v-.013s.185-2.877.206-3.246S165.187,205.589,165.187,205.589Z" transform="translate(-156.161 -205.373)" fill="#5095a4"/>
                      <path id="Path_52268" data-name="Path 52268" d="M165.21,208.819l.039-1.535-1.377,1.172a1.481,1.481,0,0,1-.832.447l-6.009.284s-.318-.5.209-1.634c.041-.09-.307.154-.614.46a1.4,1.4,0,0,0-.459.766c0,.3,0,.457,0,.832a.235.235,0,0,0,.233.24h0l8.375-.056a.335.335,0,0,0,.334-.338v-.014Z" transform="translate(-156.16 -205.762)" fill="#f0f0f0"/>
                      <path id="Path_52269" data-name="Path 52269" d="M165.248,208.9a5.827,5.827,0,0,1-.443.646c-.062.121-.467.2-.577.2l-6.963.246c-.345.012-.659.111-.855-.172a3.8,3.8,0,0,1-.251-.636l.013.845a.228.228,0,0,0,.231.225h0l8.551-.123a.263.263,0,0,0,.255-.248Z" transform="translate(-156.159 -206.091)" fill="#a3a3a3"/>
                    </g>
                    <path id="Path_86457" data-name="Path 86457" d="M190.6,205.236a36.887,36.887,0,0,1,1,3.84c-.042.4-.075.639-2.31.758-2.785.147-2.261-.858-2.261-.858l.36-3.631h1.684A13.412,13.412,0,0,0,190.6,205.236Z" transform="translate(-162.441 -205.236)" fill="#5095a4"/>
                    <path id="Path_86458" data-name="Path 86458" d="M187.082,209.133h0c-.011.115.455.088.561-.143s.694-.338,2.147-.359,1.748.709,1.752.717a1.92,1.92,0,0,1,.059.419c-.042.4-.075.639-2.31.758-2.785.147-2.261-.858-2.261-.858Z" transform="translate(-162.441 -205.928)" fill="#f0f0f0"/>
                    <path id="Path_86459" data-name="Path 86459" d="M191.6,210.033h-2.737c-.7,0-1.834-.1-1.834-.1l-.039.626s-.1.19.463.246a24.182,24.182,0,0,0,3.22.064c.382-.046.647-.08.819-.112.35-.067.242-.186.242-.186Z" transform="translate(-162.439 -206.193)" fill="#a3a3a3"/>
                  </g>
                  <g id="Group_23821" data-name="Group 23821" transform="translate(0 7.121)">
                    <g id="Group_23820" data-name="Group 23820" transform="translate(0 1.034)">
                      <g id="Group_23819" data-name="Group 23819">
                        <g id="Group_23817" data-name="Group 23817">
                          <g id="Group_23813" data-name="Group 23813" transform="translate(18.085 13.655)">
                            <g id="Group_23809" data-name="Group 23809" transform="translate(0.234)">
                              <path id="Path_54079" data-name="Path 54079" d="M178.923,136.581a.412.412,0,0,1,.241-.517c.186-.038.378.131.428.377a.412.412,0,0,1-.242.516c-.185.039-.377-.13-.428-.377" transform="translate(-178.91 -136.059)" fill="#fff"/>
                            </g>
                            <g id="Group_23810" data-name="Group 23810" transform="translate(0 4.72)">
                              <path id="Path_54080" data-name="Path 54080" d="M178.629,142.509a.411.411,0,0,1,.242-.516c.185-.039.377.13.428.377a.414.414,0,0,1-.242.517c-.185.038-.377-.131-.428-.377" transform="translate(-178.616 -141.987)" fill="#fff"/>
                            </g>
                            <g id="Group_23811" data-name="Group 23811" transform="translate(0.084 9.287)">
                              <path id="Path_54081" data-name="Path 54081" d="M178.735,148.245a.411.411,0,0,1,.241-.516c.186-.039.377.13.428.377a.413.413,0,0,1-.242.517c-.185.038-.377-.131-.428-.377" transform="translate(-178.722 -147.723)" fill="#fff"/>
                            </g>
                            <g id="Group_23812" data-name="Group 23812" transform="translate(0.17 13.697)">
                              <path id="Path_54082" data-name="Path 54082" d="M178.843,153.783a.411.411,0,0,1,.241-.516c.186-.038.378.13.428.377a.412.412,0,0,1-.242.517c-.185.038-.376-.131-.428-.377" transform="translate(-178.83 -153.261)" fill="#fff"/>
                            </g>
                          </g>
                          <g id="Group_23815" data-name="Group 23815" transform="translate(0 0.968)">
                            <g id="Group_23814" data-name="Group 23814">
                              <path id="Path_53059" data-name="Path 53059" d="M165.228,133.392c-7.9,10.291-11.844,7.554-7.282-1.63,1.964-3.961,5.484-9.979,9.123-10.006.311,0,3.528,2.3,3.8,2.368C170.871,124.125,167.2,131.154,165.228,133.392Z" transform="matrix(-0.105, 0.995, -0.995, -0.105, 152.4, -143.921)" fill="#ece2e3"/>
                              <path id="Path_53139" data-name="Path 53139" d="M185.738,135.176c.013,4.145-.368,9.644.292,14.405.169.545-.647.412-2.478.775a38.026,38.026,0,0,1-13.491-1.033c-.419-.11-1.292-.171-1.5-.654-.556-3.4,1.244-11.368.156-16.167-.257-.705.259-2.37.274-3.346a27.239,27.239,0,0,0-.545-4.506,3.012,3.012,0,0,0-1.464-2.669c1.3-.848,5.209-1.745,8.627-1.855.321.133-1.038.748-.853,1.211a4.689,4.689,0,0,0,2.659.83c1.362,0,2.327-.144,2.769-.806.776-.269-.046-1.037.571-.893,3.715.915,3.324,1.767,4.176,3.515S185.714,129.286,185.738,135.176Z" transform="translate(-158.162 -120.126)" fill="#fff"/>
                            </g>
                          </g>
                          <g id="Group_23816" data-name="Group 23816" transform="translate(8.611)">
                            <path id="Path_54084" data-name="Path 54084" d="M177.45,135.92c-.007-.294-.021-.562-.041-.8-.012-.149-.027-.285-.045-.409-.011-.075-.023-.154-.037-.237-.055-.331-.13-.717-.223-1.148-.115-.535-.257-1.139-.418-1.79q-.1-.386-.2-.791c-.054-.211-.109-.425-.166-.643q-.146-.56-.3-1.141c-.185-.685-.377-1.386-.572-2.086q-.11-.4-.221-.791c-.061-.214-.121-.428-.182-.641q-.164-.579-.326-1.14c-.455-1.583-.88-3.023-1.194-4.072-.22.056-.417.111-.589.162h0l-.009.007c-.272.037-2.155-1.155-3.021-.228,0-.014-3.085,1.366-3.152,1.717-.072.254-.021.041.123.158.178.134,2.846,2.773,1.425,5.938-.627,1.4-1.358,2.514-1.368,2.586a14.083,14.083,0,0,1,.963,4.715c-.026,6.074-1.057,16.266-1.064,16.655-.01.487-.013.755-.013.755l.008,0,1.206.138,5.081.582,2.792.319s4.113.084,4.129-.033c.081-.637.1-3.113.4-5.894.038-.352-3.761-.652-3.722-1.018q.042-.4.084-.8c.021-.215.044-.432.064-.649.038-.381.076-.766.112-1.151.086-.914.166-1.833.236-2.724.021-.27.041-.536.061-.8.015-.219.03-.436.044-.65.026-.395.049-.78.069-1.153C177.443,137.743,177.47,136.732,177.45,135.92Z" transform="translate(-166.719 -119.096)" fill="#383453"/>
                            <path id="Path_54085" data-name="Path 54085" d="M188.19,147.848q-.036-.394-.072-.8-.027-.321-.057-.649c-.033-.381-.067-.766-.1-1.153-.081-.956-.22-3.3-.291-4.237-.019-.269.77-5.712.842-10.181s-.605-6.794-.72-7a8.951,8.951,0,0,0-4.3-3.464l-2.617-1.453s-6.246,0-6.14.7c.059.389,2.2,27.6,2.24,27.979.321,3.148.564,5.969.564,5.969l9.733-.315,2.526-.279A10.238,10.238,0,0,1,188.19,147.848Z" transform="translate(-168.352 -118.91)" fill="#383453"/>
                            <path id="Path_54086" data-name="Path 54086" d="M186.07,121.439a2.448,2.448,0,0,0-.1-.737,2.776,2.776,0,0,0-1.347-.918l0,.006a4.05,4.05,0,0,1,.854,1.886c.025.853.341,8.167.341,8.167S186.167,123.645,186.07,121.439Z" transform="translate(-170.367 -119.088)" fill="#383453"/>
                            <path id="Path_54087" data-name="Path 54087" d="M190.622,161.4s-5.036.531-6.694.6c-1.422.062-5.326-.057-5.326-.057l-.131-1.268,11.4-.605Z" transform="translate(-169.113 -127.297)" fill="#ece2e3"/>
                            <path id="Path_54090" data-name="Path 54090" d="M181.109,161.722s-3.6.088-5.177-.034c-1.417-.11-9.088-1.041-9.088-1.041l.037-1.814s5.982,1,8.28,1.268c1.139.131,5.5.277,5.5.277Z" transform="translate(-166.744 -127.044)" fill="#ece2e3"/>
                          </g>
                        </g>
                      </g>
                    </g>
                    <path id="Path_54083" data-name="Path 54083" d="M172.378,120.082s13.044,2.05,8.551-1.024-10.044-.292-10.044-.292Z" transform="translate(-158.956 -117.611)" fill="#383453"/>
                    <path id="Path_54088" data-name="Path 54088" d="M176.244,125.352c-.045-.183-.083-.328-.121-.483a9.244,9.244,0,0,0-1.232-3.129,1.348,1.348,0,0,1-.082-1.085c.436-1.229.057-1.533.057-1.533s-3.6-.551-4.1-.066-.307,1.351.414,2.455,2.031,1.388,2.474,1.96,3.6,7.08,3.6,7.08A38.946,38.946,0,0,0,176.244,125.352Z" transform="translate(-158.875 -117.864)" fill="#383453"/>
                    <path id="Path_54089" data-name="Path 54089" d="M182.518,121.091a13.217,13.217,0,0,1-.68-2.1v-.055c.076.018.149.037.22.058l0,0,0,0s-.624-.583.007-.349a18.624,18.624,0,0,1,1.982.9h0l0,.006a2.389,2.389,0,0,1,1,2.03c.023.795.193,8.024.193,8.024S182.96,121.726,182.518,121.091Z" transform="translate(-161.177 -117.81)" fill="#383453"/>
                  </g>
                </g>
              </g>
            </g>
            <g id="Group_24578" data-name="Group 24578" transform="translate(322.71 2.918) rotate(108)">
              <path id="Path_86464" data-name="Path 86464" d="M142.94,147.6l1.979-.464a2.011,2.011,0,0,1-.562.916c-.406.33-1.23.8-1.639.567S141.452,147.607,142.94,147.6Z" transform="translate(-0.207 -12.874)" fill="#feb59b"/>
              <path id="Path_86465" data-name="Path 86465" d="M154.923,137.446s-6.317,3.84-8.713,6.987c-.272.358-1.065.884-1.206,1.194-.348.766.533,1.632,1.381,1.78,3.488.605,11.107-5.44,11.107-5.44Z" transform="translate(-0.782 -10.898)" fill="#ece2e3"/>
              <path id="Path_86466" data-name="Path 86466" d="M144.712,147.14s-3.521,4.407-4.236,5.417,3.141-.886,4.235-1.376,1.871-1.41,1.736-1.786A2.912,2.912,0,0,1,144.712,147.14Z" transform="translate(0 -12.874)" fill="#feb59b"/>
            </g>
          </g>
        </g>
      </g>
      <g id="Group_22371" data-name="Group 22371" transform="matrix(0.883, 0.469, -0.469, 0.883, 1602.442, 160.676)">
        <g id="Group_22715" data-name="Group 22715">
          <g id="Group_22714" data-name="Group 22714" clip-path="url(#clip-path-17)">
            <g id="Group_21911-2" data-name="Group 21911">
              <g id="Group_22705" data-name="Group 22705">
                <g id="Group_22704" data-name="Group 22704" clip-path="url(#clip-path-18)">
                  <g id="Group_21900-2" data-name="Group 21900">
                    <g id="Group_22703" data-name="Group 22703">
                      <g id="Group_22702" data-name="Group 22702" clip-path="url(#clip-path-19)">
                        <g id="Group_21899-2" data-name="Group 21899">
                          <g id="Group_21897-2" data-name="Group 21897" opacity="0">
                            <g id="Group_21896-3" data-name="Group 21896">
                              <path id="Path_47014-2" data-name="Path 47014" d="M26.551,68.163l11.409,5.8L30.813,88.024l-11.4-5.794Z" stroke="rgba(0,0,0,0)" stroke-linecap="round" stroke-width="1" fill="url(#linear-gradient)"/>
                            </g>
                          </g>
                          <g id="Group_21898-2" data-name="Group 21898">
                            <path id="Path_47015-2" data-name="Path 47015" d="M26.551,68.162l11.409,5.8L30.814,88.024l-11.4-5.8Z" stroke="rgba(0,0,0,0)" stroke-linecap="round" stroke-width="1" fill="url(#linear-gradient)"/>
                          </g>
                        </g>
                      </g>
                    </g>
                  </g>
                </g>
              </g>
              <g id="Group_22709" data-name="Group 22709">
                <g id="Group_22708" data-name="Group 22708" clip-path="url(#clip-path-20)">
                  <g id="Group_21905-2" data-name="Group 21905">
                    <g id="Group_22707" data-name="Group 22707">
                      <g id="Group_22706" data-name="Group 22706" clip-path="url(#clip-path-21)">
                        <g id="Group_21904-2" data-name="Group 21904">
                          <g id="Group_21902-2" data-name="Group 21902" opacity="0">
                            <g id="Group_21901-2" data-name="Group 21901">
                              <path id="Path_47018-2" data-name="Path 47018" d="M26.562,68.161l11.4,5.8L30.811,88.014l-11.4-5.8Z" stroke="rgba(0,0,0,0)" stroke-linecap="round" stroke-width="1" fill="url(#linear-gradient)"/>
                            </g>
                          </g>
                          <g id="Group_21903-2" data-name="Group 21903">
                            <path id="Path_47019-2" data-name="Path 47019" d="M26.563,68.162l11.4,5.8L30.811,88.016l-11.4-5.8Z" stroke="rgba(0,0,0,0)" stroke-linecap="round" stroke-width="1" fill="url(#linear-gradient)"/>
                          </g>
                        </g>
                      </g>
                    </g>
                  </g>
                </g>
              </g>
              <g id="Group_22713" data-name="Group 22713">
                <g id="Group_22712" data-name="Group 22712" clip-path="url(#clip-path-22)">
                  <g id="Group_21910-2" data-name="Group 21910">
                    <g id="Group_22711" data-name="Group 22711">
                      <g id="Group_22710" data-name="Group 22710" clip-path="url(#clip-path-21)">
                        <g id="Group_21909-2" data-name="Group 21909">
                          <g id="Group_21907-2" data-name="Group 21907" opacity="0">
                            <g id="Group_21906-2" data-name="Group 21906">
                              <path id="Path_47022-2" data-name="Path 47022" d="M26.561,68.161l11.4,5.8L30.811,88.014l-11.4-5.8Z" stroke="rgba(0,0,0,0)" stroke-linecap="round" stroke-width="1" fill="url(#linear-gradient)"/>
                            </g>
                          </g>
                          <g id="Group_21908-2" data-name="Group 21908">
                            <path id="Path_47023-2" data-name="Path 47023" d="M26.562,68.161l11.4,5.8L30.812,88.015l-11.4-5.8Z" stroke="rgba(0,0,0,0)" stroke-linecap="round" stroke-width="1" fill="url(#linear-gradient)"/>
                          </g>
                        </g>
                      </g>
                    </g>
                  </g>
                </g>
              </g>
            </g>
          </g>
        </g>
      </g>
    </g>
    <g id="Group_24582" data-name="Group 24582" transform="translate(1415.5 187.3)">
      <g id="Group_22736" data-name="Group 22736" transform="translate(21.261 80.7)">
        <g id="Group_22732" data-name="Group 22732" transform="translate(0 21.572)">
          <g id="Mask_Group_11735-2" data-name="Mask Group 11735">
            <g id="Group_24325-3" data-name="Group 24325" transform="translate(13.497)">
              <path id="Path_53256-3" data-name="Path 53256" d="M49.257,110.152" transform="translate(-42.384 -110.152)" fill="none" stroke="#707070" stroke-width="0.198"/>
              <g id="Group_24311-2" data-name="Group 24311" transform="translate(0 5.285)">
                <path id="Path_53079-2" data-name="Path 53079" d="M43.061,121.818a2.823,2.823,0,0,1,1.914.421A1.162,1.162,0,0,1,45.5,123.6c-.343.446-.981.793-3.633.634-1.5-.135-2.031-.749-1.989-1.033C39.786,122.4,41.026,122,43.061,121.818Z" transform="translate(-39.873 -118.556)" fill="#e69578"/>
                <path id="Path_53080-2" data-name="Path 53080" d="M43.438,117.469l2.027.146s-.84,2.463-.49,3.414c-.066.59-1.968.671-1.968.671ZM41.619,121a11.643,11.643,0,0,0-.211-3.632l2.03.1.844,3.862-.483.376-1.841-.4Z" transform="translate(-40.284 -117.367)" fill="#e69578"/>
              </g>
            </g>
            <g id="Group_24356-2" data-name="Group 24356" transform="translate(6.604 35.551)">
              <g id="Group_23663-2" data-name="Group 23663">
                <g id="Group_23417-2" data-name="Group 23417">
                  <g id="Group_19887-2" data-name="Group 19887">
                    <g id="Group_19844-2" data-name="Group 19844" transform="translate(0.018 0.376)">
                      <g id="Group_19842-2" data-name="Group 19842">
                        <g id="Group_19822-2" data-name="Group 19822">
                          <g id="Group_19819-2" data-name="Group 19819">
                            <g id="Group_19281-2" data-name="Group 19281">
                              <g id="Group_19277-2" data-name="Group 19277">
                                <g id="Group_19279-2" data-name="Group 19279">
                                  <g id="Group_19276-2" data-name="Group 19276">
                                    <g id="Group_19265-2" data-name="Group 19265">
                                      <g id="Group_19261-2" data-name="Group 19261">
                                        <g id="Group_19259-2" data-name="Group 19259">
                                          <path id="Path_50162-2" data-name="Path 50162" d="M55.92,184.067c1.25,5.841-.342,11.821.623,17.136a2.237,2.237,0,0,1-1.185.687,3.6,3.6,0,0,1-1.591-.344c-.264-1.1-.018-.209-.207-.995a26.014,26.014,0,0,0-.845-3.136c-.491-2.207-2.516-8.749-1.93-9.739C51.463,186.53,54.139,183.524,55.92,184.067Z" transform="translate(-35.889 -165.838)" fill="#fd434a"/>
                                          <g id="Group_19258-2" data-name="Group 19258">
                                            <path id="Path_50190-2" data-name="Path 50190" d="M39.465,162.071c-2.453-.1-4.563-1.921-8.452-2.868-.59,2.772.408,7.39.408,7.39s2.55-2,6.974,1.66a2.352,2.352,0,0,0,.592,0c.741-.277,2.069-1.033,3.936-1.66,4.507-1.515,5.606-1.327,5.606-1.327l-1.028-4.68A15.628,15.628,0,0,1,39.465,162.071Z" transform="translate(-30.578 -159.203)" fill="#fd434a"/>
                                            <path id="Path_50164-2" data-name="Path 50164" d="M43.769,169.158c.029.552-.738-1.038-.623-.544.089.378.635,1.9.689,2.187a31.6,31.6,0,0,0,1.342,4.2c1.225,3.238,2.959,5.593,3.444,8.282,0,2.2,4.137,1.146,5.324,0,.409-.4.587.431,0-3.747s-1.791-11.819-2.345-12.964C51.6,166.575,43.7,167.868,43.769,169.158Z" transform="translate(-33.871 -161.175)" fill="#fd434a"/>
                                            <path id="Path_50181-2" data-name="Path 50181" d="M40.642,165.723c.018,6.7-2.8,12.711-4.016,15.284-.707,1.5-4,3.089-5.235,2.073-.426-.352.073-4.2,0-6.49-.1-3.1-.982-8.686-.888-11.7.023-.75.035-.04,0-.4a8.564,8.564,0,0,1,.31-2.661S40.64,164.422,40.642,165.723Z" transform="translate(-30.487 -159.908)" fill="#fd434a"/>
                                            <path id="Path_50183-2" data-name="Path 50183" d="M31.754,182.194c-.654,1.31-.729,5.847-.815,7.166-.033,3.412-.143,4.158,0,6.762a22.555,22.555,0,0,1,0,3.762c-.091.7,2.024.683,2.563.489,1.143-4.839,1.929-6.169,2.7-9.649a30.311,30.311,0,0,0,.98-9.293C36.889,178.914,33.524,181.5,31.754,182.194Z" transform="translate(-30.589 -164.862)" fill="#fd434a"/>
                                          </g>
                                        </g>
                                      </g>
                                    </g>
                                  </g>
                                </g>
                              </g>
                            </g>
                          </g>
                        </g>
                      </g>
                    </g>
                    <path id="Path_52606-2" data-name="Path 52606" d="M47.325,160.937a45.326,45.326,0,0,1-9,.944,28.331,28.331,0,0,1-7.864-1.25s0-.6,0-.938c0-.439.04-.914.05-1a30.05,30.05,0,0,0,7.815,1.507,24.589,24.589,0,0,0,8.739-.9A10.567,10.567,0,0,0,47.325,160.937Z" transform="translate(-30.462 -158.689)" fill="#1c1c1c"/>
                  </g>
                </g>
              </g>
              <g id="Path_53456-2" data-name="Path 53456" transform="translate(8.799 1.416)">
                <path id="Path_86428" data-name="Path 86428" d="M42.6,162.875l3.235-.085-.229-2.168-3.136.064Z" transform="translate(-42.475 -160.622)" fill="none"/>
                <path id="Path_86429" data-name="Path 86429" d="M42.935,161.112l.078,1.318,2.345-.062-.137-1.3-2.285.047m2.676-.49.229,2.168-3.235.085-.129-2.189Z" transform="translate(-42.475 -160.622)" fill="#ece2e3"/>
              </g>
              <rect id="Rectangle_5371-2" data-name="Rectangle 5371" width="1.014" height="2.751" rx="0.395" transform="translate(14.826 1.055) rotate(-7)" fill="#fd434a"/>
              <rect id="Rectangle_5440-2" data-name="Rectangle 5440" width="2.751" height="1.014" rx="0.395" transform="translate(5.123 3.952) rotate(-83)" fill="#fd434a"/>
              <rect id="Rectangle_5441-2" data-name="Rectangle 5441" width="2.751" height="1.014" rx="0.395" transform="translate(0.924 3.083) rotate(-83)" fill="#fd434a"/>
            </g>
            <g id="Group_24357-2" data-name="Group 24357" transform="translate(5.792 70.731)">
              <g id="Group_23674-2" data-name="Group 23674" transform="translate(18.536 0.1)">
                <path id="Path_52267-2" data-name="Path 52267" d="M54.662,207.286c.02.34.19,2.986.19,2.986v.012a.279.279,0,0,0,.277.281l7.667.053h0a.279.279,0,0,0,.279-.279v-.622a2.553,2.553,0,0,0-.149-.382c-.153-.3-.725-1.339-3.948-1.989a.218.218,0,0,0-.037-.005c-.969-.07-1.116-.47-1.559-.484-.024.006-.233.045-1.248.121a5.294,5.294,0,0,1-1.355.078S54.643,206.947,54.662,207.286Z" transform="translate(-54.66 -206.857)" fill="#5095a4"/>
                <path id="Path_52268-2" data-name="Path 52268" d="M54.876,210.756v.012a.309.309,0,0,0,.307.311l7.7.051h0a.218.218,0,0,0,.215-.22c0-.346,0-.486,0-.765a1.284,1.284,0,0,0-.423-.705c-.283-.282-.6-.505-.565-.423.485,1.047.193,1.5.193,1.5l-5.528-.261a1.359,1.359,0,0,1-.765-.412l-1.266-1.078.036,1.413Z" transform="translate(-54.683 -207.368)" fill="#f0f0f0"/>
                <path id="Path_52269-2" data-name="Path 52269" d="M54.782,211.278a.242.242,0,0,0,.234.229l7.867.114h0a.211.211,0,0,0,.213-.207l.011-.776a3.5,3.5,0,0,1-.231.585c-.181.26-.469.169-.787.158l-6.405-.226c-.1,0-.474-.069-.531-.179a5.361,5.361,0,0,1-.407-.594Z" transform="translate(-54.683 -207.8)" fill="#a3a3a3"/>
              </g>
              <path id="Path_86430" data-name="Path 86430" d="M30.461,206.72a33.928,33.928,0,0,0-.921,3.532c.039.368.069.588,2.126.7,2.561.136,2.079-.788,2.079-.788l-.331-3.34H31.865A12.357,12.357,0,0,1,30.461,206.72Z" transform="translate(-29.403 -206.72)" fill="#5095a4"/>
              <path id="Path_86431" data-name="Path 86431" d="M33.7,210.576h0c.01.105-.418.081-.515-.131s-.639-.311-1.975-.33-1.608.653-1.611.66a1.734,1.734,0,0,0-.055.385c.039.368.069.588,2.126.7,2.561.135,2.079-.789,2.079-.789Z" transform="translate(-29.403 -207.628)" fill="#f0f0f0"/>
              <path id="Path_86432" data-name="Path 86432" d="M29.491,211.509h2.518c.639,0,1.686-.092,1.686-.092l.037.576s.087.174-.426.226a22.239,22.239,0,0,1-2.962.059c-.352-.042-.595-.073-.753-.1-.322-.062-.223-.171-.223-.171Z" transform="translate(-29.353 -207.977)" fill="#a3a3a3"/>
            </g>
            <g id="Group_23821-2" data-name="Group 23821" transform="translate(0 6.55)">
              <g id="Group_23820-2" data-name="Group 23820" transform="translate(0 0.952)">
                <g id="Group_23819-2" data-name="Group 23819">
                  <g id="Group_23817-2" data-name="Group 23817">
                    <g id="Group_23813-2" data-name="Group 23813" transform="translate(15.448 12.561)">
                      <g id="Group_23809-2" data-name="Group 23809">
                        <path id="Path_54079-2" data-name="Path 54079" d="M43.165,138.024c-.047.227-.223.382-.393.346a.38.38,0,0,1-.223-.475c.047-.227.223-.382.394-.346a.379.379,0,0,1,.222.475" transform="translate(-42.537 -137.543)" fill="#fff"/>
                      </g>
                      <g id="Group_23810-2" data-name="Group 23810" transform="translate(0.215 4.341)">
                        <path id="Path_54080-2" data-name="Path 54080" d="M43.459,143.951c-.048.227-.224.382-.394.346a.38.38,0,0,1-.223-.475c.047-.227.224-.382.394-.347a.379.379,0,0,1,.223.475" transform="translate(-42.831 -143.47)" fill="#fff"/>
                      </g>
                      <g id="Group_23811-2" data-name="Group 23811" transform="translate(0.138 8.543)">
                        <path id="Path_54081-2" data-name="Path 54081" d="M43.354,149.687c-.048.227-.224.382-.394.346a.38.38,0,0,1-.223-.475c.047-.226.224-.382.394-.346a.379.379,0,0,1,.223.475" transform="translate(-42.726 -149.206)" fill="#fff"/>
                      </g>
                      <g id="Group_23812-2" data-name="Group 23812" transform="translate(0.059 12.599)">
                        <path id="Path_54082-2" data-name="Path 54082" d="M43.245,155.225c-.047.227-.223.382-.393.347a.38.38,0,0,1-.223-.475c.046-.227.223-.382.394-.346a.378.378,0,0,1,.222.475" transform="translate(-42.617 -154.745)" fill="#fff"/>
                      </g>
                    </g>
                    <g id="Group_23815-2" data-name="Group 23815" transform="translate(0 0.891)">
                      <g id="Group_23814-2" data-name="Group 23814">
                        <path id="Path_53047" data-name="Path 53047" d="M35.795,125.74s-3.32-3.18-7.307,1.109c-2.133,2.293-5.579,9.17-6.967,11.442-.642,1.051,3.024,3.236,4.063,2.635.75-.434,10.211-15.186,10.211-15.186" transform="translate(-21.446 -122.411)" fill="#ece2e3"/>
                        <path id="Path_53139-2" data-name="Path 53139" d="M32.418,125.159c.783-1.608.423-2.392,3.842-3.234.567-.133-.19.574.524.821.407.609,1.294.741,2.547.741a4.311,4.311,0,0,0,2.446-.764c.171-.426-1.08-.992-.784-1.113,3.144.1,4.643.445,5.835,1.225.756.445.825,1.419.754,2.936a25.163,25.163,0,0,0-.5,4.145c.015.9.489,2.43.253,3.079-1,4.414.655,11.743.144,14.872-.188.444-.992.5-1.377.6a34.993,34.993,0,0,1-12.409.95c-1.685-.333-2.435-.212-2.28-.713.607-4.379.257-9.439.269-13.251C31.7,130.036,31.633,126.764,32.418,125.159Z" transform="translate(-24.106 -121.61)" fill="#fff"/>
                      </g>
                    </g>
                    <g id="Group_23816-2" data-name="Group 23816" transform="translate(5.232)">
                      <path id="Path_54084-2" data-name="Path 54084" d="M41.181,138.827c.018.343.039.7.063,1.061.012.2.026.4.041.6q.025.364.055.735c.064.82.138,1.665.218,2.506.033.355.067.708.1,1.059q.03.3.059.6.038.369.077.734c.035.337-3.459.613-3.424.936.278,2.559.3,4.836.371,5.422.013.108,3.8.03,3.8.03l2.569-.294,4.674-.535,1.11-.127H50.9s0-.246-.011-.7c-.007-.357-.954-9.733-.979-15.32A12.955,12.955,0,0,1,50.8,131.2a44.081,44.081,0,0,1-1.06-4.726c-.265-2.052.433-4.453.974-4.942-.062-.324-2.644.088-2.648.1-.8-.853-2.528.243-2.779.209l-.008-.006h0c-.158-.046-.34-.1-.542-.148-.289.965-.68,2.29-1.1,3.746-.1.343-.2.694-.3,1.049q-.083.293-.167.59-.1.363-.2.727c-.179.644-.356,1.289-.526,1.919q-.143.534-.278,1.05-.078.3-.153.591-.094.372-.182.727c-.148.6-.278,1.155-.385,1.647-.086.4-.155.751-.205,1.055-.013.077-.024.149-.034.219-.017.114-.031.24-.042.376-.018.218-.031.464-.037.735C41.1,136.861,41.127,137.79,41.181,138.827Z" transform="translate(-31.206 -120.638)" fill="#383453"/>
                      <path id="Path_54085-2" data-name="Path 54085" d="M28.668,151.716l2.324.256,8.952.289s.223-2.6.519-5.491c.035-.344,2.006-25.379,2.06-25.736.1-.637-5.648-.64-5.648-.64l-2.408,1.337a8.234,8.234,0,0,0-3.955,3.186,19.674,19.674,0,0,0-.662,6.44c.067,4.111.793,9.118.775,9.365-.065.861-.193,3.019-.267,3.9-.03.356-.061.71-.092,1.061-.018.2-.036.4-.053.6-.022.248-.045.493-.067.735A9.409,9.409,0,0,1,28.668,151.716Z" transform="translate(-28.61 -120.394)" fill="#383453"/>
                      <path id="Path_54086-2" data-name="Path 54086" d="M36.1,130.521s.289-6.728.313-7.513a3.721,3.721,0,0,1,.786-1.735l0-.005a2.556,2.556,0,0,0-1.239.844,2.259,2.259,0,0,0-.088.678C35.786,124.82,36.1,130.521,36.1,130.521Z" transform="translate(-30.534 -120.628)" fill="#383453"/>
                      <path id="Path_54087-2" data-name="Path 54087" d="M28.725,162.156l11.042.119-.12,1.168s-3.591.108-4.9.051c-1.525-.067-6.158-.555-6.158-.555Z" transform="translate(-28.589 -131.567)" fill="#ece2e3"/>
                      <path id="Path_54090-2" data-name="Path 54090" d="M37.976,161.738s4.009-.133,5.057-.254c2.114-.244,7.617-1.167,7.617-1.167l.034,1.669s-7.056.855-8.359.957c-1.452.113-4.762.031-4.762.031Z" transform="translate(-30.989 -131.075)" fill="#ece2e3"/>
                    </g>
                  </g>
                </g>
              </g>
              <path id="Path_54083-2" data-name="Path 54083" d="M47.744,120.157s-5.106-2.56-9.239.268,7.867.943,7.867.943Z" transform="translate(-25.778 -119.095)" fill="#383453"/>
              <path id="Path_54088-2" data-name="Path 54088" d="M43.337,131.1s2.9-5.986,3.309-6.513,1.611-.789,2.276-1.8.839-1.812.381-2.257-3.771.061-3.771.061-.349.278.052,1.41a1.24,1.24,0,0,1-.075,1,8.458,8.458,0,0,0-1.134,2.879c-.035.142-.069.276-.111.444A35.865,35.865,0,0,0,43.337,131.1Z" transform="translate(-27.303 -119.428)" fill="#383453"/>
              <path id="Path_54089-2" data-name="Path 54089" d="M36.187,130.2s.156-6.651.177-7.381a2.2,2.2,0,0,1,.921-1.867l0-.006h0a17.275,17.275,0,0,1,1.823-.825c.581-.215.007.321.007.321v0c.065-.02.133-.038.2-.054v.051a12.162,12.162,0,0,1-.626,1.936C38.291,122.957,36.187,130.2,36.187,130.2Z" transform="translate(-25.39 -119.356)" fill="#383453"/>
            </g>
          </g>
        </g>
      </g>
      <g id="Group_24579" data-name="Group 24579" transform="translate(57.21 -5.898) rotate(30)">
        <g id="Group_22735" data-name="Group 22735" transform="translate(24.431 80.7)">
          <g id="Group_22734" data-name="Group 22734">
            <g id="Group_24310-2" data-name="Group 24310" transform="translate(2.516 7.28)">
              <g id="Group_23917-2" data-name="Group 23917">
                <path id="Path_54367-2" data-name="Path 54367" d="M30.178,104.51a9.192,9.192,0,0,0,10.993,6.941l-.021.005a9.193,9.193,0,0,0,6.941-10.993l-.749-3.313c-1.118-4.953-5.882-7.358-10.834-6.239l.021-.005c-4.952,1.119-8.218,5.339-7.1,10.292Z" transform="translate(-29.209 -90.64)" fill="#feb59b"/>
                <g id="Group_23915-2" data-name="Group 23915" transform="translate(8.162 11.322)">
                  <path id="Path_54383-2" data-name="Path 54383" d="M40.352,107.8c.029-.642-.051-1.342.99-1.659s2.354,1.05,2.015,2.259-1.356,2.953-1.816,2.18a7.66,7.66,0,0,1-1.188-2.78" transform="translate(-40.352 -106.098)" fill="#feb59b"/>
                </g>
              </g>
              <path id="Path_54390-2" data-name="Path 54390" d="M42.943,107.95" transform="translate(-32.883 -95.271)" fill="none" stroke="#707070" stroke-width="0.198"/>
            </g>
            <g id="Component_5_21" data-name="Component 5 21">
              <g id="Group_22733" data-name="Group 22733">
                <path id="Path_52600" data-name="Path 52600" d="M43.058,85.636c-.721,2.233-2.675,7.722-6.991,8.578s-5.833-.287-5.833-.287a6.127,6.127,0,0,1,.083,2.005,20.071,20.071,0,0,1-.283,2.062l-.314-.691c-.056-.27-.12-.264-.12-.264l.12.264A7.772,7.772,0,0,1,29.8,98.82c-.017,1.8-.042.8-.1,1.077s.04,1.948.04,1.948-1.736-2.817-2.665-4.737-1.364-2.521-1.3-3.929a1.83,1.83,0,0,1,1.2-1.741s.869-4.23,3.913-6.158c2.764-1.751,5.863-3.239,6.3-3.473A15.035,15.035,0,0,0,36.148,83.1s2.027-.814,3.341-1.23A4.139,4.139,0,0,0,41.4,80.7a6.629,6.629,0,0,1-.7,2,10.41,10.41,0,0,0-.6.854l2.528-1.772A4.548,4.548,0,0,1,43.058,85.636Z" transform="translate(-25.774 -80.7)" fill="#5b2c12"/>
                <path id="Path_52601" data-name="Path 52601" d="M44.607,85.635A23.244,23.244,0,0,1,43,89.509c-1.348,1.565-2.546,2.253-2.494,2.062.064-.236,1.078-2.311,1.078-2.311a13.09,13.09,0,0,1-2.413,1.689,25.747,25.747,0,0,1-2.959,1.066s.522-.6,1.43-1.734a5.427,5.427,0,0,0,1.094-2,10.4,10.4,0,0,1-3.983,1.724,5.344,5.344,0,0,0-2.973,1.258,12.678,12.678,0,0,1,1.337-1.869,6.267,6.267,0,0,1,1.746-1.685,6.747,6.747,0,0,0-2.508.672,2.454,2.454,0,0,0-.8.81c.079-.19.993-2.369,1.45-3.113a5.289,5.289,0,0,1,1.482-1.4l-2.507,1.176.25-.442c.066-.045.132-.089.2-.132,2.766-1.753,5.868-3.241,6.3-3.473A14.929,14.929,0,0,0,37.7,83.1s2.027-.814,3.341-1.23A4.139,4.139,0,0,0,42.954,80.7a6.629,6.629,0,0,1-.7,2,10.41,10.41,0,0,0-.6.854l2.527-1.771A4.548,4.548,0,0,1,44.607,85.635Z" transform="translate(-27.323 -80.7)" fill="#5b2c12"/>
                <path id="Path_52602" data-name="Path 52602" d="M41.906,87.334a29.209,29.209,0,0,1-3.641.505s5.608-1.74,6.971-3.459a3.637,3.637,0,0,0,.7-2.078,4.589,4.589,0,0,1,.372,3.76,23.1,23.1,0,0,1-1.6,3.874C43.357,91.5,42.158,92.19,42.21,92c.064-.237,1.078-2.312,1.078-2.312a13.128,13.128,0,0,1-2.413,1.69,25.887,25.887,0,0,1-2.959,1.065s.137-.157.393-.464c2.546-.844,5.482-5.234,5.593-5.425S43.283,87,41.906,87.334Z" transform="translate(-29.023 -81.129)" fill="#5b2c12"/>
              </g>
            </g>
            <path id="Path_86433" data-name="Path 86433" d="M41.436,92.731a3.76,3.76,0,0,1,2.955,3.414c.317,4.6,1.891,13.634-4,15.841-7.8,2.92-13.957-8.817-14.1-13.624-.105-3.445,2.713-1.209,3.533-1.274a3.883,3.883,0,0,0,1.371-.357l7.822-3.722a3.774,3.774,0,0,1,2.427-.279Z" transform="translate(-25.909 -83.896)" fill="#5b2c12"/>
          </g>
          <path id="Path_86434" data-name="Path 86434" d="M48.75,97.887s-.028-3.1,1.209-2.86-.647-3.574-3.245-4.334S42.1,92.28,41.841,92.514,48.75,97.887,48.75,97.887Z" transform="translate(-30.071 -83.333)" fill="#5b2c12"/>
        </g>
        <g id="Group_23907" data-name="Group 23907" transform="translate(42.012 95.254)">
          <path id="Path_54363-2" data-name="Path 54363" d="M49.87,101.816a7.669,7.669,0,0,0,.213,3.015c.182.881,1.715-.434,2.43-1.466a1.874,1.874,0,0,0-1.165-2.794c-1.088-.042-1.241.646-1.479,1.244" transform="translate(-49.776 -100.571)" fill="#feb59b"/>
        </g>
      </g>
      <path id="Path_86435" data-name="Path 86435" d="M22.525,154.8s-2.476-10.559-1.124-11.623,4.111.964,4.111.964-.128,10.11-.724,10.7C23.914,155.711,22.525,154.8,22.525,154.8Z" transform="translate(-0.064 -16.633)" fill="#ece2e3"/>
      <path id="Path_86436" data-name="Path 86436" d="M22.844,158.617s-.639,2.713,0,2.9a2.1,2.1,0,0,0,.559.512,6.062,6.062,0,0,0,1.186.2l.938.183s.273.418.564.344.283-.348.283-.842.008-.2-.283-1.135-.712-2.358-.712-2.358-.011.771-1.3.747C23.1,159.151,22.844,158.617,22.844,158.617Z" transform="translate(-0.462 -20.794)" fill="#feb59b"/>
      <path id="Path_53059-2" data-name="Path 53059" d="M54.644,128.792c-.083-.245-1.837-5.285-1.858-5.57-.254-3.338,1-3.639,4.483-5.743,3.092-2.321,6.079-4.586,8.014-5.039,3.226-.755,3.748,2.051-1.452,7.212C61.789,122.015,54.644,128.792,54.644,128.792Z" transform="translate(-8.561 -8.459)" fill="#ece2e3"/>
      <path id="Path_86437" data-name="Path 86437" d="M65.895,111.973S71.121,101.2,75.13,101.2c2.294,0-4.34,11.287-5.241,12.556S65.895,111.973,65.895,111.973Z" transform="translate(-12.077 -5.485)" fill="#ece2e3"/>
      <path id="Path_86438" data-name="Path 86438" d="M74.625,100.484a5.881,5.881,0,0,1,1.01-5.007c1.825-2.227,1.807,0,1.807,0a12.09,12.09,0,0,1,1.592,1.3c.581.612.464,2.783,0,3.73a5.321,5.321,0,0,1-1.782,1.727A4.207,4.207,0,0,0,74.625,100.484Z" transform="translate(-14.413 -3.279)" fill="#feb59b"/>
      <path id="Path_86794" data-name="Path 86794" d="M22.1,140.409s.269-1.077,1.128-.574l.607.232.442.182c.426.184.724.1.737.375s.24.96,0,1a2.82,2.82,0,0,1-.912,0,3.873,3.873,0,0,1-.969-.232,2.415,2.415,0,0,1-.744-.431A.77.77,0,0,1,22.1,140.409Z" fill="#e69578"/>
    </g>
  </g>
</svg>
