<?xml version="1.0" encoding="utf-8"?>
<!-- Generator: Adobe Illustrator 26.0.3, SVG Export Plug-In . SVG Version: 6.00 Build 0)  -->
<svg version="1.0" id="katman_1" xmlns="http://www.w3.org/2000/svg" xmlns:xlink="http://www.w3.org/1999/xlink" x="0px" y="0px"
	 viewBox="0 0 118 93" style="enable-background:new 0 0 118 93;" xml:space="preserve">
<style type="text/css">
	.st0{fill-rule:evenodd;clip-rule:evenodd;fill:#198CFF;}
	.st1{fill-rule:evenodd;clip-rule:evenodd;fill:#FFFFFF;}
	.st2{opacity:0.5;fill-rule:evenodd;clip-rule:evenodd;enable-background:new    ;}
	.st3{fill-rule:evenodd;clip-rule:evenodd;fill-opacity:0.1;}
	.st4{fill-rule:evenodd;clip-rule:evenodd;fill:#F3F3F3;}
	.st5{fill-rule:evenodd;clip-rule:evenodd;fill-opacity:0.25;}
	.st6{fill-rule:evenodd;clip-rule:evenodd;fill-opacity:5.000000e-02;}
	.st7{fill-rule:evenodd;clip-rule:evenodd;fill-opacity:0.15;}
	.st8{fill-rule:evenodd;clip-rule:evenodd;fill:#4C4C4C;}
	.st9{fill-rule:evenodd;clip-rule:evenodd;fill:#7F7F7F;}
</style>
<symbol  id="A" viewBox="-32 -31.9 64 63.9">
	<g>
		<path class="st0" d="M0-24.7c13.7,0,24.8,11.1,24.8,24.7S13.7,24.7,0,24.7S-24.8,13.7-24.8,0S-13.7-24.7,0-24.7"/>
		<path class="st1" d="M-31,0c0,17.1,13.9,30.9,31,30.9S31,17.1,31,0S17.1-30.9,0-30.9S-31-17.1-31,0z M-24.8,0
			c0,13.7,11.1,24.7,24.8,24.7S24.8,13.7,24.8,0S13.7-24.7,0-24.7S-24.8-13.7-24.8,0L-24.8,0z"/>
		<g>
			<path class="st2" d="M-32,0c0,17.6,14.3,31.9,32,31.9S32,17.6,32,0S17.7-31.9,0-31.9S-32-17.6-32,0z M-31,0
				c0-17.1,13.9-30.9,31-30.9S31-17.1,31,0S17.1,30.9,0,30.9S-31,17.1-31,0z M-23.7,0c0,13.1,10.6,23.7,23.7,23.7S23.7,13.1,23.7,0
				c0-13.1-10.6-23.7-23.7-23.7S-23.7-13.1-23.7,0L-23.7,0z M-24.8,0c0-13.7,11.1-24.7,24.8-24.7S24.8-13.7,24.8,0S13.7,24.7,0,24.7
				S-24.8,13.7-24.8,0z"/>
			<path class="st3" d="M10.7,25.8c9.4-4,16-13.3,16-24.2c0-14.5-11.8-26.3-26.4-26.3c-14.6,0-26.4,11.8-26.4,26.3
				c0,14.5,11.8,26.2,26.3,26.3H0c-15.3,0-27.7-12.3-27.7-27.6S-15.3-27.2,0-27.2S27.7-14.9,27.7,0.4C27.7,11.8,20.7,21.7,10.7,25.8
				L10.7,25.8z M-0.5,28.2c17.1,0,30.9-13.8,30.9-30.8c0-1.6-0.1-3.1-0.3-4.7C30.7-4.8,31-2.3,31,0.1c0,17-13.9,30.8-30.9,30.8
				c-15.5,0-28.3-11.3-30.6-26.1C-27.2,18.2-15,28.2-0.5,28.2L-0.5,28.2z"/>
		</g>
		<path class="st4" d="M0-18.5c10.3,0,18.6,8.3,18.6,18.5S10.3,18.5,0,18.5S-18.6,10.2-18.6,0C-18.6-10.2-10.3-18.5,0-18.5z"/>
		<g>
			<path class="st5" d="M0-18.5c-10.3,0-18.6,8.3-18.6,18.5S-10.3,18.5,0,18.5S18.6,10.2,18.6,0S10.3-18.5,0-18.5z M0-19.6
				c10.8,0,19.6,8.8,19.6,19.6c0,10.8-8.8,19.6-19.6,19.6S-19.6,10.8-19.6,0C-19.6-10.8-10.8-19.6,0-19.6z"/>
			<path class="st6" d="M8.2,0c0,4.6-3.7,8.3-8.3,8.3S-8.3,4.6-8.3,0S-4.6-8.3,0-8.3S8.2-4.6,8.2,0z"/>
			<path class="st7" d="M7.2,0C7.2-4,4-7.2,0-7.2S-7.2-4-7.2,0S-4,7.2,0,7.2C4,7.2,7.2,4,7.2,0z M8.2,0c0,4.6-3.7,8.3-8.3,8.3
				S-8.3,4.6-8.3,0S-4.6-8.3,0-8.3S8.2-4.6,8.2,0z"/>
		</g>
		<path class="st1" d="M8.2,0c0-4.6-3.7-8.3-8.3-8.3S-8.3-4.6-8.3,0S-4.6,8.3,0,8.3S8.2,4.6,8.2,0z M9.3,0c0,5.1-4.2,9.3-9.3,9.3
			S-9.3,5.1-9.3,0S-5.1-9.3,0-9.3S9.3-5.1,9.3,0L9.3,0z"/>
		<path class="st1" d="M4.1,2v-14.3h-8.3v26.8h8.3V5.8L2.1,3.9L4.1,2z M-4.1-3.8v3.8l2.1-1.9L-4.1-3.8z"/>
		<path class="st8" d="M4.1,0.9v-14.3h-8.3v26.8h8.3V4.8L2.1,2.9L4.1,0.9z M-4.1-4.8V-1l2.1-1.9L-4.1-4.8z"/>
		<path class="st9" d="M3.1,1.4v-12.7h-6.2v24.7h6.2V6.2l-1.5-2v-1L3.1,1.4z M-3.1,0.6l1.5-1.7v-1l-1.5-1.8V0.6z"/>
	</g>
</symbol>
<use xlink:href="#A"  width="64" height="63.9" x="-32" y="-31.9" transform="matrix(1 0 0 1 58.5 46.44)" style="overflow:visible;"/>
</svg>
