<?xml version="1.0" encoding="utf-8"?>
<!-- Generator: Adobe Illustrator 24.3.0, SVG Export Plug-In . SVG Version: 6.00 Build 0)  -->
<svg version="1.0" id="katman_1" xmlns="http://www.w3.org/2000/svg" xmlns:xlink="http://www.w3.org/1999/xlink" x="0px" y="0px"
	 viewBox="0 0 841.89 595.28" style="enable-background:new 0 0 841.89 595.28;" xml:space="preserve">
<style type="text/css">
	.st0{fill:#AEDEFF;}
	.st1{fill:#6BBCF4;}
	.st2{fill:#279BE9;}
	.st3{fill:#E1F3FF;}
</style>
<path class="st0" d="M485.19,353.24h39.39v132.84c0,1.65-0.53,3.27-1.48,4.49l-14.02,18.03c-2.27,2.92-6.21,2.92-8.5,0l-13.9-17.89
	c-0.95-1.24-1.48-2.84-1.48-4.49v-14.87c0-1.84,0.63-3.59,1.74-4.89l3.2-3.73c2.48-2.89,2.48-7.57,0-10.43l-0.26-0.3
	c-2.48-2.89-2.48-7.57,0-10.43l0.28-0.32c2.48-2.89,2.48-7.57,0-10.43l-0.14-0.16c-2.48-2.89-2.48-7.57,0-10.43
	c2.48-2.89,2.48-7.57,0-10.43l-2.97-3.46c-1.18-1.38-1.85-3.27-1.85-5.22V353.24z"/>
<path class="st0" d="M508.16,372.93c38.07,0,68.93-30.86,68.93-68.93s-30.86-68.93-68.93-68.93s-68.93,30.86-68.93,68.93
	S470.09,372.93,508.16,372.93z"/>
<path class="st0" d="M504.88,182.56c-25.33,0-45.95-22.07-45.95-49.23s20.6-49.23,45.95-49.23c25.35,0,45.95,22.07,45.95,49.23
	S530.23,182.56,504.88,182.56L504.88,182.56z M504.88,96.35c-19.03,0-34.51,16.59-34.51,36.97c0,20.38,15.48,36.97,34.51,36.97
	c19.03,0,34.51-16.59,34.51-36.97C539.39,112.94,523.91,96.35,504.88,96.35z"/>
<path class="st1" d="M580.5,248.8H435.88v105.15H580.5V248.8z"/>
<path class="st2" d="M416.71,253.09l182.99,0.03l-91.48-67.44L416.71,253.09z"/>
<path class="st2" d="M562.78,277.53h-43.66v76.42h43.66V277.53z"/>
<path class="st3" d="M493.21,276.16h-32.76v32.76h32.76V276.16z"/>
<path class="st1" d="M515.41,150.88l-15.04,0.15c-4.57,0.05-8.23,3.79-8.18,8.35l0.43,42.79c0.05,4.57,3.79,8.23,8.35,8.19
	l15.04-0.15c4.57-0.05,8.23-3.79,8.19-8.35l-0.43-42.79C523.71,154.5,519.97,150.84,515.41,150.88z"/>
<path class="st2" d="M297.8,207.17c-34.24,0-62.07-27.6-62.07-61.54s27.83-61.54,62.07-61.54s62.07,27.6,62.07,61.54
	S332.04,207.17,297.8,207.17z M297.8,101.36c-24.62,0-44.65,19.87-44.65,44.27c0,16.59,9.28,31.11,22.93,38.69
	c6.41,3.54,13.84,5.58,21.68,5.58c24.62,0,44.65-19.87,44.65-44.27s-20.02-44.27-44.65-44.27H297.8z"/>
<path class="st0" d="M242.22,209.06c0-29.9,24.4-54.23,54.3-54.19c29.94,0,54.3,24.36,54.26,54.22c0,26.1-18.59,47.97-43.21,53.06
	v182.96h30.81v12.1c-6.34,1.06-11.2,6.6-11.2,13.35c0,6.71,4.86,12.29,11.2,13.35v12.1h-30.85v7.84c0,3.05-2.49,5.54-5.54,5.54
	H290.9c-3.05,0-5.54-2.49-5.54-5.54l0.08-241.71c-24.62-5.13-43.18-27-43.18-53.09H242.22z M296.48,241.15
	c17.72,0,32.13-14.37,32.13-32.09c0-17.69-14.4-32.09-32.13-32.09c-14.03,0-25.98,9.01-30.35,21.53c-1.13,3.28-1.77,6.83-1.77,10.52
	c0,17.69,14.4,32.09,32.09,32.09L296.48,241.15z"/>
<path class="st2" d="M297.8,207.17c-11.54,0-22.4-3.13-31.64-8.64c-6.83-4.04-12.78-9.31-17.61-15.54
	c-8.03-10.37-12.78-23.34-12.78-37.41h17.42c0,8.3,2.3,16.06,6.33,22.74c4.04,6.64,9.77,12.18,16.59,15.95
	c6.41,3.55,13.84,5.58,21.68,5.58v17.27V207.17z"/>
</svg>
